<svg width="534" height="653" viewBox="0 0 534 653" fill="none" xmlns="http://www.w3.org/2000/svg">
<path d="M390.272 127.724C438.676 151.051 480.082 196.539 505.742 252.525C530.819 308.51 540.733 374.993 527.903 440.309C515.073 505.042 479.499 568.609 425.846 591.353C372.194 613.514 301.046 594.852 219.4 608.849C137.755 622.845 46.1951 668.916 -9.20714 647.339C-65.1926 625.178 -83.8544 535.368 -121.178 444.975C-158.502 355.165 -213.904 265.355 -207.489 179.627C-201.074 94.4824 -132.842 13.4201 -49.4467 1.75644C33.3651 -9.9072 131.34 46.6614 208.32 75.2373C285.3 104.396 341.868 104.396 390.272 127.724Z" fill="#0DB4B9"/>
</svg>
